<svg xmlns="http://www.w3.org/2000/svg" xmlns:xlink="http://www.w3.org/1999/xlink" version="1.1" id="Livello_1" x="0px" y="0px" viewBox="-201 283 620 460" style="enable-background:new -201 283 620 460;" xml:space="preserve">
<style type="text/css">
	.st0{fill:#66CC33;}
	.st1{fill:#000001;}
</style>
<g>
	<polygon class="st0" points="-126.2,659.9 344.4,659.9 107.8,422.7  "/>
	<path class="st1" d="M-191,596.1l13.5-13.8l42.1,41.3l22.5-22.8l12.2,12.2l-36,36.5L-191,596.1z M-100.7,613.1L-100.7,613.1   l-12.2-12.3l0,0l-22.5,22.8l-42-41.2l0,0L-191,596l0,0l54.3,53.5l0,0L-100.7,613.1z M-177.5,582.4l42,41.2l0,0l22.5-22.8l12.1,12.1   l-35.9,36.4l-54.2-53.4L-177.5,582.4z M-56.3,567.8l-11.1-11.1L-90.2,580l-11.6-11.6l18.3-18.5l-11.1-11.1l-18.5,18.8l-9.3-9.3   l23-23.6l-10.9-10.7l-37.1,37.6l54.5,53.5L-56.3,567.8z M-56.2,567.8L-56.2,567.8l-11.2-11.2l-22.8,23.3l-11.6-11.6l18.2-18.5l0,0   l-11.2-11.2l0,0l-18.5,18.8l-9.2-9.2l23-23.6l-10.7-10.6l0,0l-37.1,37.6l0,0l54.6,53.5l0,0L-56.2,567.8z M-110.3,514.1l10.8,10.5   l-23,23.5l0,0l9.3,9.3l0,0l18.5-18.8l11,11l-18.2,18.5l0,0l11.7,11.7l22.8-23.3l11,11L-92.8,605l-54.4-53.4L-110.3,514.1z    M-102.9,506.6l54.3,53.5l14-14l-44.4-44l8.2-8.2l0.3-0.3l0.8-0.8l0.8-0.5l0.8-0.5l0.3-0.3l0.5-0.3l0.5-0.3l0.3-0.3h0.5l0.5-0.3   l0.5-0.3h0.5l0.8-0.3h0.5h0.5h0.8l0.5,0.3h0.5l0.5,0.3l0.8,0.3l0.5,0.3l0.8,0.3l0.5,0.5l0.8,0.5l0.3,0.3l0.8,0.8l0.3,0.8l0.5,0.5   l0.3,0.5l0.3,0.3l0.3,0.5v0.5l0.3,0.5l0.3,0.5v0.5v0.5v0.5v0.5v0.8v0.5l-0.3,0.8v0.5l-0.5,0.8l-0.3,0.5l-0.3,0.8l-0.5,0.8l-0.5,0.8   l-0.8,0.8l-7.9,7.9l47.4,13.5l14.8-15.1l-36.8-10.6l0.3-0.5l0.5-1.9l0.3-0.5v-0.8l0.3-0.8v-0.8l0.3-0.8v-0.8V495v-1.1v-1.1V492v-1   l-0.3-1.1l-0.3-1.3l-0.3-1.1l-0.3-1.1l-0.3-1.1l-0.5-1.3l-0.5-1.1l-0.5-1.3l-0.8-1.1l-0.8-1.3l-1.1-1.1l-0.8-1.3l-1.1-1.1l-0.3-0.3   l-0.5-0.3l-0.5-0.5l-1.1-0.8l-0.8-0.3l-0.5-0.5l-0.8-0.3l-0.8-0.5l-0.8-0.3l-0.8-0.5l-0.8-0.3l-1.1-0.3l-1.1-0.3l-1.1-0.3l-1.1-0.3   h-1.1h-1.1h-1.3h-1.1l-1.3,0.3l-1.3,0.5l-1.3,0.3l-1.3,0.5l-1.3,0.8l-1.3,0.8l-1.3,0.8l-1.3,1.1l-1.3,1.3L-102.9,506.6z    M-34.5,546.1L-34.5,546.1l-44.4-44l9.2-9.2l1.6-1.1l0.3-0.3l1.1-0.5l0.3-0.3h0.5l1.1-0.5h0.5l0.8-0.3h1.8l0.5,0.3h0.5l0.5,0.3   l0.8,0.3l0.5,0.3l0.8,0.3l0.5,0.5l0.8,0.5l1,1l0.3,0.8l0.5,0.5l0.3,0.5l0.3,0.3l0.3,0.5v0.5l0.5,1.1v3.4l-0.3,0.8v0.5l-0.5,0.8   l-0.3,0.5l-0.3,0.8l-1,1.6l-8.8,8.8l47.5,13.5l0,0l14.8-15.1l0.1-0.1l-36.8-10.6l0.2-0.5l0.5-1.8l0.3-0.5v-0.8l0.3-0.8v-0.8   l0.3-0.8l0,0v-5.6l-0.3-1.1l-0.3-1.3l-0.8-3.2l-0.5-1.3l-0.5-1.1l-0.5-1.3l-0.8-1.1l-0.8-1.3l-1.1-1l-0.8-1.3l-1.3-1.3l-0.5-0.3   l-0.5-0.5l-1.1-0.8l-0.8-0.3l-0.5-0.5l-0.8-0.3l-0.8-0.5l-0.8-0.3l-0.8-0.5l-0.8-0.3l-4.2-1.1h-4.5l-1.3,0.3L-64,471l-1.3,0.3   l-1.3,0.5l-4,2.4l-1.3,1.1l-1.3,1.3l-29.4,29.9l0,0l54.3,53.5l0,0L-34.5,546.1z M-73.4,476.8l1.3-1.3l1.3-1.1l4-2.4l1.3-0.5   l1.3-0.3l1.3-0.5l1.3-0.3h4.5l4.2,1.1l0.8,0.3l0.8,0.5l0.8,0.3l0.8,0.5l0.8,0.3l0.5,0.5l0.8,0.3l1,0.8l0.5,0.5l0.5,0.3l1.3,1.3   l0.8,1.3l1.1,1l0.8,1.3l0.8,1.1l0.5,1.3l0.5,1.1l0.5,1.3l0.8,3.2l0.3,1.3l0.3,1v5.5l-0.3,0.8v0.8l-0.3,0.8v0.8l-0.3,0.5l-0.5,1.8   l-0.3,0.6l36.8,10.6l-14.7,15l-47.2-13.5l8.7-8.7l1.1-1.6l0.3-0.8l0.3-0.5l0.5-0.8v-0.5l0.3-0.8v-3.5l-0.5-1.1V496l-0.3-0.6   l-0.3-0.3l-0.3-0.5l-0.5-0.5l-0.3-0.8l-1.1-1.1l-0.8-0.5l-0.5-0.5l-0.8-0.3l-0.5-0.3l-0.8-0.3l-0.5-0.3h-0.5l-0.5-0.3h-1.9   l-0.8,0.3H-65l-1.1,0.5h-0.5l-0.3,0.3l-1.1,0.5l-0.3,0.3l-1.6,1.1l-9.3,9.3l0,0l44.5,43.9L-48.6,560l-54.2-53.4L-73.4,476.8z    M27.9,429.1l1.1,1.1l0.5,0.5l0.5,0.8l0.8,0.8l0.8,1.1l0.8,1.3l0.8,1.3l1.1,1.3l0.8,1.3l0.8,1.6l0.8,1.9l0.8,1.6l0.5,1.9l0.8,2.1   l0.5,1.9l0.3,2.1l0.3,2.1l0.3,2.4l-0.3,2.4v2.1l-0.5,2.6l-0.5,2.4l-0.8,2.6l-1.1,2.4l-1.3,2.6l-1.6,2.6l-1.9,2.6l-2.1,2.6l-2.4,2.9   l-0.3,0.3l-0.8,0.8l-0.8,0.5l-0.5,0.8l-1.1,0.5l-1.1,0.8l-1.1,0.8l-1.1,0.8l-1.6,1.1l-1.3,0.8l-1.6,0.8l-1.6,0.8l-1.9,0.8l-1.6,0.5   l-2.1,0.5l-1.9,0.5l-2.1,0.5l-2.1,0.3H1h-2.4l-2.4-0.3l-2.4-0.5l-2.4-0.5l-2.6-0.8l-2.4-1.3l-2.6-1.3l-2.6-1.6l-2.6-1.9l-2.6-2.1   l-2.6-2.4l-0.5-0.3L-28,482l-0.5-0.5l-0.5-0.8l-0.8-0.8l-0.8-1.1l-0.8-1.1l-0.8-1.3l-1.1-1.3l-0.8-1.3l-0.8-1.6l-0.8-1.6l-0.8-1.6   l-0.8-1.9l-0.5-2.1l-0.5-1.9l-0.5-2.1l-0.3-2.1l-0.3-2.1v-2.4l0.3-2.4l0.3-2.4l0.5-2.4l0.8-2.4l0.8-2.6l1.3-2.6l1.3-2.6l1.9-2.6   l1.9-2.6l2.4-2.6l0.3-0.3l0.8-1.1l0.5-0.5l0.8-0.8l0.8-0.5l1.1-0.8l1.1-1.1l1.3-0.8l1.3-0.8l1.3-1.1l1.6-0.8l1.9-0.8l1.6-0.8   l1.9-0.8l1.9-0.5l2.1-0.5l2.1-0.5l2.1-0.3H-1h2.4l2.4,0.3l2.4,0.3l2.6,0.5l2.4,1.1l2.6,1.1l2.9,1.3l2.6,1.6l2.9,1.9l2.6,2.1   l2.9,2.4L27.9,429.1z M18.1,471.7l1.1-1.3l0.8-1.1l0.8-1.3l0.5-1.1l0.3-1.3l0.3-1.3l0.3-1.1v-1.3l-0.3-1.3v-1.1l-0.3-1.3l-0.5-1.1   l-0.3-1.1l-0.5-1.3l-0.5-1.1l-0.5-1.1l-0.5-0.8l-0.5-1.1l-0.8-1.1l-0.5-0.8l-0.5-0.8l-0.5-0.8l-0.8-0.5l-0.8-1.3l-1.1-0.8l-0.5-0.5   v-0.3l-1.9-1.6l-1.6-1.6l-1.6-1.3l-1.6-1.1L4.5,437l-1.3-0.8l-1.6-0.5l-1.3-0.5l-1.3-0.5l-1.3-0.3l-1.3-0.3h-1.1H-6h-1.1l-1.1,0.3   l-1.1,0.3l-0.8,0.3l-0.8,0.3l-0.8,0.3l-0.8,0.5l-0.8,0.3l-0.5,0.5l-0.5,0.3l-0.5,0.5l-0.8,0.8l-0.8,0.5l-0.3,0.5l-0.3,0.3l-1.1,1.1   l-0.8,1.3l-0.8,1.1l-0.5,1.3l-0.5,1.1L-21,447l-0.3,1.1v1.3v1.3v1.1l0.3,1.3l0.3,1.1l0.3,1.1l0.5,1.1l0.5,1.1l0.3,1.1l0.5,1.1   l0.8,0.8l0.5,1.1l0.5,0.8l0.8,0.8l0.5,0.8l0.5,0.8l0.5,0.5l1.1,1.1l0.8,1.1l0.5,0.5h0.3l1.6,1.9l1.6,1.3l1.6,1.3l1.6,1.3l1.6,0.8   l1.3,0.8l1.6,0.8l1.3,0.5l1.3,0.5l1.1,0.3l1.3,0.3l1.1,0.3h1.1h1.1l1.1-0.3l1.1-0.3l0.8-0.3l0.8-0.3l0.8-0.3l0.8-0.3l0.8-0.5   l0.5-0.3l0.5-0.3l0.5-0.5l0.8-0.8l0.5-0.5l0.5-0.3v-0.3L18.1,471.7z M5.4,495.8l2.1-0.5l1.9-0.5l2.1-0.5l1.6-0.5L15,493l3.2-1.6   l1.3-0.8l1.6-1.1l3.2-2.4l1.1-0.5l0,0l0.5-0.8l0.8-0.5l1.1-1.1l2.4-2.9l2.1-2.6l1.9-2.7l1.6-2.6l1.3-2.7l1.1-2.4l0.8-2.6l0.5-2.4   l0.5-2.7v-2.1l0.3-2.4l-0.3-2.4l-0.5-4.2l-0.5-1.9l-0.8-2.1l-0.5-1.9l-0.8-1.6l-0.8-1.9l-0.8-1.6l-0.8-1.3l-1.1-1.3l-1.6-2.7   l-0.8-1.1l-0.8-0.8l-0.5-0.8l-1.6-1.6l-0.3-0.3l-2.9-2.4l-2.7-2.1l-2.9-1.9l-2.7-1.6l-2.9-1.3l-2.6-1.1l-2.4-1.1L6,416.6l-4.8-0.5   h-4.8l-2.1,0.3l-4.2,1.1l-1.9,0.5l-1.9,0.8l-1.6,0.8l-1.9,0.8l-1.6,0.8l-1.3,1.1l-2.7,1.6l-1.1,1.1l-1.1,0.8l-0.8,0.5l-1.3,1.3   l-0.8,1.1L-28,429l-2.4,2.7l-3.7,5.3l-2.7,5.3l-0.8,2.6l-0.8,2.4l-0.5,2.4l-0.5,4.8v2.4l0.5,4.2l0.5,2.1l0.5,1.9l0.5,2.1l0.8,1.9   l2.4,4.8l0.8,1.3l1.1,1.3l0.8,1.3l1.6,2.1l0.8,0.8l0.5,0.8l0.5,0.5l0.8,1.1l0.5,0.3l2.6,2.4l2.7,2.1l2.7,1.9l2.7,1.6l2.6,1.3   l2.4,1.3l2.7,0.8l4.8,1.1l2.4,0.3h4.5L5.4,495.8z M-27.9,482l-0.5-0.5l-0.5-0.8l-0.8-0.8l-1.6-2.1l-0.8-1.3l-1.1-1.3l-0.8-1.3   l-2.4-4.8l-0.8-1.8l-0.5-2.1l-0.5-1.9l-0.5-2.1l-0.5-4.2v-2.4l0.5-4.8l0.5-2.4l0.8-2.4l0.8-2.6l2.6-5.3l3.7-5.3l2.4-2.6l0.3-0.3   l0.8-1.1l1.3-1.3l0.8-0.5l1.1-0.8l1-1.1l2.7-1.6l1.3-1.1l1.6-0.8l1.9-0.8l1.6-0.8l1.8-0.8l1.8-0.5l4.2-1.1l2.1-0.3h4.8l4.8,0.5   l2.6,0.5l2.4,1.1l2.6,1.1l2.9,1.3l2.6,1.6l2.9,1.8l2.6,2.1l2.9,2.4l1.8,1.8l0.5,0.8l0.8,0.8l0.8,1.1l1.6,2.7l1.1,1.3l0.8,1.3   l0.8,1.6l0.8,1.9l0.8,1.6l0.5,1.9l0.8,2.1l0.5,1.8l0.5,4.2l0.3,2.4l-0.3,2.4v2.1l-0.5,2.6l-0.5,2.4l-0.8,2.6l-1.1,2.4l-1.3,2.6   l-1.6,2.6l-1.8,2.6l-2.1,2.6l-2.4,2.9l-1,1l-0.8,0.5l-0.5,0.8l-1.1,0.5l-3.2,2.4l-1.6,1.1l-1.3,0.8l-3.2,1.6l-1.8,0.8l-1.6,0.5   l-2.1,0.5l-1.9,0.5l-2.1,0.5l-2.1,0.3h-4.5l-2.4-0.3l-4.8-1.1l-2.6-0.8l-2.4-1.3l-2.6-1.3l-2.6-1.6l-2.6-1.9l-2.6-2.1l-2.6-2.4   l-0.5-0.3L-27.9,482z M9.6,477.3l3.2-1.1l0.8-0.5l1.1-0.5l1.9-1.9l0.6-0.3v-0.3l1-1l1.1-1.3l0.8-1.1l0.8-1.3l0.5-1.1l0.5-2.7   l0.3-1.1v-1.3l-0.3-1.3v-1.1l-0.3-1.3l-0.5-1.1l-0.3-1.1l-0.5-1.3l-1.1-2.1l-0.5-0.8l-0.5-1.1l-0.8-1.1l-1.6-2.4l-0.8-0.5l-0.8-1.3   l-1.1-0.8l-0.5-0.5v-0.3l-1.9-1.6l-1.6-1.6l-1.6-1.3l-3.2-2.1L3,436.3l-1.6-0.5l-2.7-1.1l-2.7-0.5h-3.2l-2.1,0.5l-2.4,0.8l-0.8,0.5   l-0.8,0.3l-0.5,0.5l-0.5,0.3l-1.3,1.3l-0.8,0.5l-0.3,0.5L-18,441l-0.8,1.3l-0.8,1.1l-0.5,1.3l-0.5,1.1l-0.3,1.3l-0.3,1.1v3.7   l0.3,1.3l0.5,2.1l1.1,2.1l0.3,1.1l0.5,1.1l0.8,0.8l0.5,1.1l0.5,0.8l0.8,0.8l1.1,1.6l1.6,1.6l0.8,1.1l0.5,0.5h0.3l1.6,1.8l4.8,4   l1.6,0.8l1.3,0.8l1.6,0.8l2.7,1.1l1.1,0.3l1.3,0.3l1.1,0.3h2.1L9.6,477.3z M-12.3,467.1l-0.8-1.1l-1.6-1.6l-1.1-1.6l-0.8-0.8   l-0.5-0.8l-0.5-1.1l-0.8-0.8l-0.5-1l-0.3-1.1l-1.1-2.1l-0.5-2.1l-0.3-1.3V448l0.3-1.1l0.3-1.3l0.5-1.1l0.5-1.3l0.8-1.1l0.8-1.3   l1.3-1.3l0.3-0.5l0.8-0.5l1.3-1.3l0.5-0.3l0.5-0.5l0.8-0.3l0.8-0.5l2.4-0.8l2.1-0.5h3.2l2.6,0.5l2.6,1.1l1.6,0.5l1.3,0.8l3.2,2.1   l1.6,1.3l1.6,1.6l1.8,1.6v0.3l0.6,0.6l1,0.8l0.8,1.3l0.8,0.5l1.6,2.4l0.8,1l0.5,1.1l0.5,0.8l1.1,2.1l0.5,1.3l0.3,1.1l0.5,1.1   l0.3,1.3v1.1l0.3,1.3v1.3l-0.3,1.1l-0.5,2.6l-0.5,1l-0.8,1.3l-0.8,1.1l-1.1,1.3l-1.1,1.1v0.3l-0.5,0.2l-1.9,1.9l-1.1,0.5l-0.8,0.5   l-3.2,1.1l-2.1,0.5H5.2l-1.1-0.3l-1.3-0.3l-1-0.3l-2.6-1.1l-1.6-0.8l-1.3-0.8l-1.6-0.8l-4.8-4l-1.6-1.9l0,0H-12L-12.3,467.1z    M48.5,419.3l21.2,20.9l13.8-14l-21.2-20.9l-13.8-52.4L32.4,369l9.8,30.2l-28.8-10.6l-14.8,15.1L48.5,419.3z M83.5,426.2   L83.5,426.2l-21.2-21l-13.8-52.4v-0.1L32.3,369l9.8,30.1l-28.7-10.5l0,0l-14.9,15.1l-0.1,0.1l50.1,15.6l21.2,20.9l0,0L83.5,426.2z    M13.3,388.6l28.9,10.6L32.4,369l16-16l13.7,52.3l0,0l21.1,20.9l-13.7,13.9l-21.1-20.9l-50-15.6L13.3,388.6z M96.2,390.4l12.4,12.4   l54-53.7l-17.2-17.5l-39.2,19.1l19.1-39.2L107.8,294l-54,53.7l12.7,12.7L96.1,331l-18.5,40.8l8.5,8.5l40-19.6L96.2,390.4z    M162.6,349.2L162.6,349.2l-17.2-17.6l0,0l-39.1,19l19-39l0,0L107.9,294l0,0l-54,53.8l0,0l12.7,12.7l0,0L96,331.4l-18.4,40.5l0,0   l8.5,8.5l39.7-19.4l-29.6,29.4l0,0l12.5,12.5l0,0L162.6,349.2z M126.1,360.8l0.3-0.3l-40.3,19.7l-8.4-8.4l18.5-40.7l0.1-0.3   l-29.8,29.6l-12.6-12.6l53.9-53.6l17.4,17.4l-19,39.1l-0.1,0.2l39.3-19.1l17.1,17.4l-53.9,53.6l-12.4-12.4L126.1,360.8z    M159.4,454.2l11.1-11.1l-22.8-23l11.4-11.6l18.5,18.5l11.1-11.1l-18.3-18.5l9.3-9.3l23,23.6l10.9-10.9l-37.1-37.3l-54,53.7   L159.4,454.2z M170.6,443.1L170.6,443.1L147.9,420l11.3-11.6l18.5,18.5l0,0l11.2-11.2l0,0l-18.3-18.5l9.2-9.2l23,23.5l0,0   l10.9-10.9l0,0l-37.1-37.4l0,0l-54,53.8l0,0l36.8,37.1l0,0L170.6,443.1z M176.6,363.5l37,37.2l-10.8,10.8l-23-23.5l0,0l-9.3,9.3   l0,0l18.3,18.5l-11,11l-18.5-18.5L147.8,420l22.8,23l-11,11l-36.7-37L176.6,363.5z M227.2,414.3L172.9,468l14,14l44.2-43.9l8.2,8.2   l0.3,0.3l0.8,1.1l0.5,0.5l0.5,0.8l0.3,0.5l0.3,0.3l0.3,0.5l0.3,0.5v0.5l0.3,0.5l0.3,0.5v0.5v0.5l0.3,0.8v0.5l-0.3,0.5v0.5v0.8   l-0.3,0.5l-0.3,0.8l-0.3,0.5l-0.5,0.5l-0.5,0.8l-0.5,0.5l-0.3,0.3l-0.8,0.8l-0.5,0.5l-0.8,0.5H238l-0.5,0.3l-0.3,0.3l-0.5,0.3h-0.5   l-0.5,0.3h-0.5l-0.5,0.3h-0.8h-0.5h-0.5l-0.8-0.3h-0.5l-0.8-0.3l-0.5-0.3l-0.8-0.5l-0.8-0.3l-0.8-0.5l-0.5-0.5l-0.8-0.8l-7.9-7.9   l-14,47.1l14.8,15.1l11.1-36.8l0.5,0.3l1.9,0.8h0.5l0.8,0.3h0.5l0.8,0.3h0.8l1.1,0.3h0.8h1.1h0.8h1.1l1.1-0.3h1.1l1.1-0.3l1.3-0.3   l1.1-0.3l1.1-0.3l1.3-0.5l1.1-0.5l1.3-0.5l1.1-0.8l1.3-0.8l1.1-0.8l1.3-1.1l1.1-1.1l0.3-0.3l0.3-0.3l0.5-0.8l0.8-1.1l0.3-0.5   l0.5-0.8l0.5-0.5l0.3-0.8l0.5-0.8l0.3-1.1l0.3-0.8l0.5-1.1l0.3-0.8l0.3-1.1v-1.1l0.3-1.3v-1.1v-1.1l-0.3-1.3l-0.3-1.3l-0.3-1.1   l-0.3-1.3l-0.5-1.3l-0.8-1.3l-0.8-1.3l-0.8-1.3l-1.1-1.6l-1.3-1.3L227.2,414.3z M230.4,477.9l0.5,0.2l1.9,0.8h0.5l0.8,0.3h0.5   l0.8,0.3h0.8l1.1,0.3h3.7l1-0.3h1.1l1.1-0.3l1.3-0.3l2.1-0.5l1.3-0.5l1.1-0.5l1.3-0.5l1.1-0.8l1.3-0.8l1.1-0.8l1.3-1.1l1.1-1.1   l0.5-0.5l0.5-0.8l0.8-1.1l0.3-0.5l0.5-0.8l0.5-0.5l0.3-0.8l0.5-0.8l0.3-1.1l0.3-0.8l0.5-1.1l0.3-0.8l0.3-1.1v-1l0.3-1.3v-2.1   l-0.5-2.6l-0.3-1.1l-0.3-1.3l-0.5-1.3l-2.4-4l-1.1-1.6l-30.7-31l0,0L173,468.1l0,0l14.1,14.1l0,0l44.2-43.9l8.2,8.2l0.3,0.3   l0.8,1.1l0.5,0.5l0.5,0.8l0.3,0.5l0.3,0.3l0.5,1v0.5l0.5,1.1v1l0.3,0.8v0.5l-0.3,0.5v1.3l-0.3,0.5l-0.3,0.8l-0.3,0.5l-0.5,0.5   l-0.5,0.8l-2.1,2.1l-0.8,0.5H238l-0.6,0.3l-0.3,0.3l-0.5,0.3h-0.5l-0.5,0.3h-0.5l-0.5,0.3h-1.8l-0.8-0.3h-0.5l-0.8-0.3l-0.5-0.3   l-0.8-0.5l-0.8-0.3l-0.8-0.5l-9.3-9.3l-0.1-0.1l-14.1,47.2l0,0l14.8,15.1l0.1,0.1L230.4,477.9z M218.5,452.5l7.9,7.9l1.3,1.3   l0.8,0.5l0.8,0.3l0.8,0.5l0.5,0.3l0.8,0.3h0.5l0.8,0.3h1.9l0.5-0.3h0.5l0.5-0.3h0.5l0.6-0.3l0.3-0.3l0.5-0.3h0.3l0.8-0.5l2.1-2.1   l0.5-0.8l0.5-0.5l0.3-0.6l0.3-0.8l0.3-0.5v-1.3l0.3-0.5v-0.6l-0.3-0.8v-1l-0.5-1.1v-0.5l-0.5-1.1l-0.3-0.3l-0.3-0.5l-0.5-0.8   l-0.5-0.5l-0.8-1.1l-8.5-8.5l0,0L187,481.9L173,468l54.2-53.6l29.3,29.6l1.3,1.3l1.1,1.6l2.4,4l0.5,1.3l0.3,1.3l0.3,1.1l0.5,2.6   v2.1l-0.3,1.3v1l-0.3,1.1l-0.3,0.8l-0.5,1.1l-0.3,0.8l-0.3,1l-0.5,0.8l-0.3,0.8l-0.5,0.5l-0.5,0.8l-0.3,0.5l-0.8,1.1l-0.5,0.8   l-1.6,1.6l-1.3,1.1l-1.1,0.8l-1.3,0.8l-1.1,0.8l-1.3,0.5l-1.1,0.5l-1.3,0.5l-2.1,0.5l-1.3,0.3l-1,0.3h-1.1l-1,0.3h-3.7l-1.1-0.3   h-0.8l-0.8-0.3H234l-0.8-0.3h-0.5l-1.8-0.8l-0.6-0.3l-11.1,36.8l-14.7-15L218.5,452.5z M230.6,526.2l36.3,36.5l12.2-12.2   l-22.5-22.8l41.8-41.6l-13.8-13.8L230.6,526.2z M279.1,550.6L279.1,550.6l-22.5-22.8l41.8-41.5l0,0l-13.8-13.8l0,0l-54,53.8l0,0   l36.3,36.6l0,0L279.1,550.6z M284.6,472.6l13.7,13.7l-41.8,41.5l0,0l22.5,22.8l-12.1,12.1l-36.2-36.4L284.6,472.6z M291.5,587.3   l54.3-53.7L331.2,519l-54,53.7L291.5,587.3z M345.8,533.7L345.8,533.7L331.2,519l0,0l-54,53.8l0,0l14.3,14.6l0,0L345.8,533.7z    M331.2,519.1l14.5,14.5l-54.2,53.6l-14.2-14.5L331.2,519.1z M316.1,612.2l36.3-36.3l-14.6,58l17.2,17.2l54-53.7l-13-13.2   l-36.5,36.3l16.4-56.1l-18.5-18.8l-54,53.7L316.1,612.2z M409,597.4L409,597.4l-13-13.3l0,0l-36.4,36.1l16.3-55.9l0,0l-18.6-18.8   l0,0l-54,53.8l0,0l12.7,13l0,0l36.1-36.1L337.6,634l0,0l17.2,17.2l0,0L409,597.4z M352.4,576l0.1-0.2l-36.4,36.4l-12.6-12.9   l53.9-53.6l18.5,18.7l-16.4,56.1l-0.1,0.2l36.6-36.4l12.9,13.1L355,651l-17.1-17.1L352.4,576z"/>
</g>
</svg>